<svg width="17" height="20" viewBox="0 0 17 20" fill="none">
<path fill-rule="evenodd" clip-rule="evenodd" d="M10.531 0.468876C10.6008 0.538544 10.6563 0.621308 10.6941 0.712426C10.7319 0.803543 10.7513 0.901225 10.7513 0.999876C10.7513 1.09853 10.7319 1.19621 10.6941 1.28733C10.6563 1.37844 10.6008 1.46121 10.531 1.53088L2.0605 9.99988L10.531 18.4689C10.6718 18.6097 10.7509 18.8007 10.7509 18.9999C10.7509 19.199 10.6718 19.39 10.531 19.5309C10.3902 19.6717 10.1992 19.7508 10 19.7508C9.80083 19.7508 9.60983 19.6717 9.469 19.5309L0.468998 10.5309C0.399153 10.4612 0.343739 10.3784 0.305929 10.2873C0.26812 10.1962 0.248657 10.0985 0.248657 9.99988C0.248657 9.90122 0.26812 9.80354 0.305929 9.71243C0.343739 9.62131 0.399153 9.53854 0.468998 9.46888L9.469 0.468876C9.53867 0.399031 9.62143 0.343617 9.71255 0.305807C9.80367 0.267997 9.90135 0.248535 10 0.248535C10.0986 0.248535 10.1963 0.267997 10.2874 0.305807C10.3786 0.343617 10.4613 0.399031 10.531 0.468876Z" fill="#282828"/>
<path fill-rule="evenodd" clip-rule="evenodd" d="M16.531 0.468876C16.6008 0.538544 16.6563 0.621308 16.6941 0.712426C16.7319 0.803543 16.7513 0.901225 16.7513 0.999876C16.7513 1.09853 16.7319 1.19621 16.6941 1.28733C16.6563 1.37844 16.6008 1.46121 16.531 1.53088L8.0605 9.99988L16.531 18.4689C16.6007 18.5386 16.656 18.6214 16.6938 18.7125C16.7315 18.8036 16.7509 18.9013 16.7509 18.9999C16.7509 19.0985 16.7315 19.1961 16.6938 19.2873C16.656 19.3784 16.6007 19.4611 16.531 19.5309C16.4613 19.6006 16.3785 19.6559 16.2874 19.6937C16.1963 19.7314 16.0986 19.7508 16 19.7508C15.9014 19.7508 15.8037 19.7314 15.7126 19.6937C15.6215 19.6559 15.5387 19.6006 15.469 19.5309L6.469 10.5309C6.39915 10.4612 6.34374 10.3784 6.30593 10.2873C6.26812 10.1962 6.24866 10.0985 6.24866 9.99988C6.24866 9.90122 6.26812 9.80354 6.30593 9.71243C6.34374 9.62131 6.39915 9.53854 6.469 9.46888L15.469 0.468876C15.5387 0.399031 15.6214 0.343617 15.7125 0.305807C15.8037 0.267997 15.9013 0.248535 16 0.248535C16.0986 0.248535 16.1963 0.267997 16.2874 0.305807C16.3786 0.343617 16.4613 0.399031 16.531 0.468876Z" fill="#282828"/>
</svg>
