<svg width="20" height="20" viewBox="0 0 20 20" fill="none" xmlns="http://www.w3.org/2000/svg">
<g clip-path="url(#clip0_158_421)">
<path d="M11.08 0.0576053C9.885 -0.241145 8.775 0.662605 8.695 1.83261C8.605 3.14636 8.4075 4.35261 8.16 5.07011C8.00375 5.52011 7.56125 6.33636 6.86 7.11886C6.16375 7.89761 5.2575 8.59136 4.19625 8.88136C3.35625 9.11011 2.5 9.83761 2.5 10.9001V15.9014C2.5 16.9576 3.3525 17.7314 4.31 17.8326C5.6475 17.9751 6.265 18.3514 6.895 18.7364L6.955 18.7739C7.295 18.9801 7.6775 19.2089 8.1675 19.3789C8.66375 19.5489 9.24375 19.6501 10 19.6501H14.375C15.5463 19.6501 16.3737 19.0539 16.7925 18.3201C16.9949 17.9739 17.1043 17.5811 17.11 17.1801C17.11 16.9901 17.0813 16.7901 17.0138 16.6001C17.265 16.2714 17.4887 15.8776 17.6237 15.4739C17.7612 15.0614 17.8387 14.5214 17.6287 14.0376C17.715 13.8751 17.7788 13.7014 17.8275 13.5339C17.9237 13.1964 17.9688 12.8239 17.9688 12.4626C17.9688 12.1026 17.9237 11.7314 17.8275 11.3926C17.7838 11.2369 17.726 11.0854 17.655 10.9401C17.8739 10.6287 18.0147 10.2692 18.0656 9.89203C18.1165 9.51482 18.076 9.13089 17.9475 8.77261C17.69 8.03261 17.095 7.39761 16.4475 7.18261C15.3888 6.83011 14.1938 6.83761 13.3025 6.91886C13.1175 6.9355 12.9328 6.95634 12.7488 6.98136C13.1824 5.12434 13.1558 3.1895 12.6713 1.34511C12.587 1.04959 12.4252 0.781962 12.2028 0.569892C11.9804 0.357823 11.7054 0.209014 11.4062 0.138855L11.08 0.0576053ZM14.375 18.4014H10C9.3625 18.4014 8.92125 18.3151 8.575 18.1964C8.22375 18.0751 7.9425 17.9114 7.605 17.7051L7.555 17.6751C6.86125 17.2514 6.0575 16.7614 4.4425 16.5901C4.02625 16.5451 3.75 16.2276 3.75 15.9026V10.9001C3.75 10.5826 4.0325 10.2214 4.525 10.0876C5.89375 9.7126 6.99625 8.84261 7.7925 7.95261C8.58625 7.06511 9.1225 6.10886 9.34 5.48011C9.64375 4.60511 9.84875 3.27011 9.9425 1.91761C9.97375 1.46511 10.3925 1.17511 10.7763 1.27011L11.1038 1.35261C11.3038 1.40261 11.4262 1.53136 11.4637 1.67136C11.9742 3.61638 11.9113 5.66754 11.2825 7.57761C11.2469 7.68384 11.2405 7.79769 11.264 7.90723C11.2875 8.01678 11.34 8.11799 11.4161 8.20028C11.4921 8.28257 11.5888 8.34292 11.6962 8.37499C11.8035 8.40707 11.9175 8.4097 12.0263 8.38261L12.03 8.38136L12.0475 8.37761L12.12 8.36011C12.5474 8.26934 12.9799 8.20381 13.415 8.16386C14.2438 8.08886 15.2362 8.09636 16.0525 8.36886C16.2712 8.44136 16.615 8.74386 16.765 9.18136C16.8987 9.56636 16.8737 10.0189 16.4325 10.4589L15.9913 10.9001L16.4325 11.3426C16.4862 11.3964 16.5638 11.5189 16.625 11.7364C16.685 11.9451 16.7188 12.1989 16.7188 12.4626C16.7188 12.7276 16.685 12.9801 16.625 13.1901C16.5625 13.4076 16.4862 13.5301 16.4325 13.5839L15.9913 14.0251L16.4325 14.4676C16.4913 14.5264 16.5688 14.6889 16.4388 15.0776C16.3033 15.4546 16.088 15.7978 15.8075 16.0839L15.3663 16.5251L15.8075 16.9676C15.815 16.9739 15.8588 17.0301 15.8588 17.1801C15.8532 17.3635 15.8012 17.5424 15.7075 17.7001C15.5013 18.0601 15.0787 18.4001 14.375 18.4001V18.4014Z" fill="#2F7505"/>
</g>
<defs>
<clipPath id="clip0_158_421">
<rect width="20" height="20" fill="white"/>
</clipPath>
</defs>
</svg>
