<svg width="20" height="20" viewBox="0 0 20 20" fill="none" xmlns="http://www.w3.org/2000/svg">
<path d="M11.08 19.5925C9.885 19.8925 8.77625 18.9875 8.695 17.8175C8.605 16.505 8.4075 15.2987 8.16 14.58C8.00375 14.13 7.56125 13.315 6.86 12.5325C6.16375 11.7525 5.2575 11.0587 4.19625 10.77C3.35625 10.54 2.5 9.8125 2.5 8.75V3.75C2.5 2.69375 3.3525 1.92 4.31 1.8175C5.6475 1.67625 6.265 1.29875 6.895 0.91375L6.955 0.8775C7.295 0.67 7.6775 0.44125 8.1675 0.2725C8.66375 0.1 9.24375 0 10 0H14.375C15.5463 0 16.3738 0.5975 16.7925 1.33C16.9975 1.68875 17.11 2.08875 17.11 2.47125C17.11 2.66125 17.0813 2.86125 17.0138 3.05125C17.265 3.37875 17.4888 3.7725 17.6238 4.17625C17.7613 4.58875 17.8388 5.12875 17.6288 5.61375C17.715 5.77625 17.7788 5.94875 17.8275 6.1175C17.9238 6.455 17.9688 6.82625 17.9688 7.1875C17.9688 7.54875 17.9238 7.92 17.8275 8.2575C17.7838 8.4075 17.7275 8.5625 17.655 8.71125C18.1475 9.425 18.1775 10.2112 17.9475 10.8775C17.69 11.6175 17.095 12.2525 16.4475 12.4675C15.3888 12.8212 14.1938 12.8125 13.3025 12.7312C13.1175 12.7146 12.9328 12.6937 12.7488 12.6687C13.1826 14.5262 13.156 16.4615 12.6713 18.3062C12.4988 18.9412 11.9838 19.3662 11.4063 19.5112L11.08 19.5925ZM14.375 1.25H10C9.3625 1.25 8.92125 1.335 8.575 1.45375C8.22375 1.575 7.9425 1.74 7.605 1.945L7.555 1.97625C6.86125 2.39875 6.0575 2.88875 4.4425 3.06125C4.02625 3.105 3.75 3.42375 3.75 3.74875V8.75C3.75 9.06875 4.0325 9.42875 4.525 9.5625C5.89375 9.9375 6.99625 10.8087 7.7925 11.6987C8.58625 12.5862 9.1225 13.5425 9.34 14.17C9.64375 15.045 9.84875 16.38 9.9425 17.7325C9.97375 18.185 10.3925 18.4762 10.7763 18.38L11.1038 18.2987C11.3038 18.2487 11.4263 18.1187 11.4637 17.98C11.9745 16.0346 11.9115 13.9829 11.2825 12.0725C11.2472 11.9663 11.2411 11.8526 11.2647 11.7433C11.2883 11.6339 11.3409 11.5329 11.4168 11.4508C11.4928 11.3687 11.5895 11.3085 11.6967 11.2765C11.8039 11.2444 11.9177 11.2418 12.0263 11.2687H12.03L12.0475 11.2737L12.12 11.29C12.5474 11.3808 12.9799 11.4463 13.415 11.4862C14.2438 11.5612 15.2363 11.5537 16.0525 11.2825C16.2713 11.2087 16.615 10.9062 16.765 10.4687C16.8988 10.0837 16.8738 9.63125 16.4325 9.1925L15.9913 8.75L16.4325 8.3075C16.4863 8.255 16.5638 8.1325 16.625 7.91375C16.685 7.705 16.7188 7.45125 16.7188 7.1875C16.7188 6.92375 16.685 6.67 16.625 6.46125C16.5625 6.24375 16.4863 6.12 16.4325 6.0675L15.9913 5.625L16.4325 5.1825C16.4913 5.12375 16.5688 4.9625 16.4388 4.5725C16.3031 4.19597 16.0878 3.85316 15.8075 3.5675L15.3663 3.125L15.8075 2.6825C15.815 2.67625 15.8588 2.62 15.8588 2.47C15.853 2.28708 15.801 2.1086 15.7075 1.95125C15.5 1.59 15.0788 1.25 14.375 1.25Z" fill="#F70000"/>
</svg>
