<svg width="8" height="14" viewBox="0 0 8 14" fill="none" xmlns="http://www.w3.org/2000/svg">
<path fill-rule="evenodd" clip-rule="evenodd" d="M7.83216 13.8418C7.88537 13.7918 7.92758 13.7324 7.95638 13.667C7.98518 13.6016 8 13.5315 8 13.4606C8 13.3898 7.98518 13.3197 7.95638 13.2543C7.92758 13.1889 7.88537 13.1295 7.83216 13.0795L1.3801 6.99986L7.83216 0.920264C7.88528 0.870206 7.92741 0.810779 7.95616 0.745375C7.98491 0.679971 7.9997 0.609871 7.9997 0.539078C7.9997 0.468286 7.98491 0.398186 7.95616 0.332782C7.92741 0.267378 7.88528 0.20795 7.83216 0.157892C7.77905 0.107834 7.71599 0.0681257 7.64659 0.0410347C7.57719 0.0139427 7.50281 0 7.4277 0C7.35258 0 7.2782 0.0139427 7.2088 0.0410347C7.1394 0.0681257 7.07634 0.107834 7.02323 0.157892L0.167835 6.61867C0.114634 6.66868 0.0724244 6.7281 0.0436244 6.79351C0.0148244 6.85892 0 6.92904 0 6.99986C0 7.07068 0.0148244 7.1408 0.0436244 7.20621C0.0724244 7.27162 0.114634 7.33103 0.167835 7.38104L7.02323 13.8418C7.0763 13.892 7.13934 13.9317 7.20874 13.9589C7.27815 13.986 7.35255 14 7.4277 14C7.50284 14 7.57725 13.986 7.64665 13.9589C7.71606 13.9317 7.7791 13.892 7.83216 13.8418Z" fill="#467FE5"/>
</svg>
