<svg width="24" height="24" viewBox="0 0 24 24" fill="none" xmlns="http://www.w3.org/2000/svg">
<g clip-path="url(#clip0_343_353)">
<path d="M18.219 0.218876C18.2886 0.149031 18.3714 0.0936167 18.4625 0.055807C18.5536 0.0179974 18.6513 -0.00146484 18.75 -0.00146484C18.8486 -0.00146484 18.9463 0.0179974 19.0374 0.055807C19.1285 0.0936167 19.2113 0.149031 19.281 0.218876L23.781 4.71888C23.8508 4.78854 23.9062 4.87131 23.944 4.96243C23.9818 5.05354 24.0013 5.15123 24.0013 5.24988C24.0013 5.34853 23.9818 5.44621 23.944 5.53733C23.9062 5.62844 23.8508 5.71121 23.781 5.78088L8.78095 20.7809C8.70898 20.8524 8.62325 20.9085 8.52895 20.9459L1.02895 23.9459C0.892657 24.0004 0.743347 24.0138 0.599532 23.9843C0.455718 23.9548 0.323724 23.8837 0.219914 23.7799C0.116105 23.6761 0.0450444 23.5441 0.0155432 23.4003C-0.013958 23.2565 -0.00060275 23.1072 0.0539533 22.9709L3.05395 15.4709C3.09135 15.3766 3.14748 15.2909 3.21895 15.2189L18.219 0.218876ZM16.8105 3.74988L20.25 7.18938L22.1895 5.24988L18.75 1.81038L16.8105 3.74988ZM19.1895 8.24988L15.75 4.81038L5.99995 14.5604V14.9999H6.74995C6.94887 14.9999 7.13963 15.0789 7.28028 15.2195C7.42094 15.3602 7.49995 15.551 7.49995 15.7499V16.4999H8.24995C8.44886 16.4999 8.63963 16.5789 8.78028 16.7195C8.92094 16.8602 8.99995 17.051 8.99995 17.2499V17.9999H9.43945L19.1895 8.24988ZM4.54795 16.0124L4.38895 16.1714L2.09695 21.9029L7.82845 19.6109L7.98745 19.4519C7.84438 19.3984 7.72104 19.3026 7.63393 19.1771C7.54681 19.0517 7.50007 18.9026 7.49995 18.7499V17.9999H6.74995C6.55104 17.9999 6.36028 17.9209 6.21962 17.7802C6.07897 17.6396 5.99995 17.4488 5.99995 17.2499V16.4999H5.24995C5.09722 16.4998 4.94817 16.453 4.82272 16.3659C4.69727 16.2788 4.60141 16.1554 4.54795 16.0124Z" fill="#467FE5"/>
</g>
<defs>
<clipPath id="clip0_343_353">
<rect width="24" height="24" fill="white"/>
</clipPath>
</defs>
</svg>
