<svg xmlns="http://www.w3.org/2000/svg" fill="#467fe5" widht="24" height="24" viewBox="0 0 512 512"><path  d="m491.051 145.286-18.415-22.905c-10.842-10.842-26.683-14.694-39.618-4.266l-19.878 16.021c-.014.011-.026.024-.04.036-.014.011-.03.021-.044.033l-16.558 13.644V10c0-5.522-4.478-10-10-10H24.823c-5.523 0-10 4.478-10 10v492c0 5.522 4.477 10 10 10h361.675c5.522 0 10-4.478 10-10V259.977l70.472-59.117 19.817-15.972c11.938-9.624 13.899-27.648 4.264-39.602zm-271.995 182.28 22.955 28.382-41.305 10.561zm41.903 20.006-14.84-18.348-15.308-18.927 162.047-133.529c.015-.012.028-.027.043-.039l25.068-20.657 28.731 35.687zM376.499 492H34.823V20h341.675v144.328l-47.479 39.123c-1.262-4.077-5.062-7.039-9.554-7.039h-87.307c-5.523 0-10 4.478-10 10s4.477 10 10 10h81.132l-29.412 24.236h-52.757c-5.523 0-10 4.478-10 10s4.477 10 10 10h28.486l-49.164 40.512a10.124 10.124 0 0 0-2.687 3.455l-18.495 39.254a9.951 9.951 0 0 0-6.656-2.552h-80.396c-5.523 0-10 4.478-10 10v80.396c0 5.522 4.477 10 10 10h80.396c5.523 0 10-4.478 10-10v-42.486l52.067-13.313h74.692c5.522 0 10-4.478 10-10s-4.478-10-10-10h-37.226l94.361-79.157zM172.605 361.317v60.396h-60.396v-60.396zm304.629-197.491a8.117 8.117 0 0 1-2.997 5.489l-12.087 9.742-28.678-35.621 12.098-9.75c3.466-2.797 8.693-2.232 11.486 1.235l18.415 22.905a8.118 8.118 0 0 1 1.763 6z"/><path d="M102.204 277.584h80.397c5.523 0 10-4.478 10-10v-80.397c0-5.522-4.477-10-10-10h-80.397c-5.523 0-10 4.478-10 10v80.397c0 5.522 4.477 10 10 10zm10-80.397h60.397v60.397h-60.397zM319.364 404.46h-87.205c-5.523 0-10 4.478-10 10s4.477 10 10 10h87.205c5.522 0 10-4.478 10-10s-4.478-10-10-10zM193.526 107.17c0-5.522-4.477-10-10-10H92.625V70.496h226.807V97.17h-47.367c-5.522 0-10 4.478-10 10s4.478 10 10 10h57.367c5.522 0 10-4.478 10-10V60.496c0-5.522-4.478-10-10-10H82.625c-5.523 0-10 4.478-10 10v46.674c0 5.522 4.477 10 10 10h100.901c5.523 0 10-4.478 10-10z"/><path d="M237.362 103.35c-1.617-3.94-5.72-6.463-9.964-6.144-4.348.326-8.057 3.519-9.014 7.776-1.867 8.297 7.272 15.057 14.672 10.88 4.331-2.446 6.22-7.916 4.306-12.512z"/></svg>