<svg width="20" height="20" viewBox="0 0 20 20" fill="none" xmlns="http://www.w3.org/2000/svg">
<path fill-rule="evenodd" clip-rule="evenodd" d="M9.99995 3.12517C9.99995 3.47029 9.71954 3.74687 9.37616 3.78144C8.24794 3.89504 7.16758 4.31404 6.25395 4.9988C5.17305 5.80894 4.38371 6.94746 4.00415 8.24385C3.6246 9.54023 3.67526 10.9247 4.14856 12.1899C4.62185 13.455 5.4923 14.5328 6.62953 15.2618C7.76675 15.9908 9.10954 16.3317 10.4568 16.2335C11.804 16.1352 13.0832 15.6032 14.1026 14.717C15.1221 13.8308 15.8271 12.6382 16.1119 11.3177C16.3967 9.99731 16.246 8.62013 15.6824 7.3925C15.6211 7.24325 15.6199 7.07605 15.679 6.9259C15.7381 6.77576 15.853 6.6543 15.9997 6.58696C16.1463 6.51961 16.3133 6.51159 16.4658 6.56458C16.6182 6.61757 16.7442 6.72746 16.8174 6.87125C17.4937 8.34449 17.6744 9.99716 17.3325 11.5817C16.9907 13.1663 16.1446 14.5974 14.9211 15.6608C13.6976 16.7242 12.1625 17.3625 10.5457 17.4802C8.929 17.5979 7.31764 17.1886 5.95303 16.3136C4.58842 15.4387 3.54402 14.1452 2.97627 12.6268C2.40852 11.1085 2.34799 9.44703 2.80374 7.89139C3.25949 6.33575 4.20698 4.96964 5.5043 3.99769C6.63431 3.15109 7.97675 2.64323 9.37548 2.52614C9.71953 2.49734 9.99995 2.77992 9.99995 3.12517Z" fill="#6618DC"/>
</svg>
