<svg width="12" height="16" viewBox="0 0 12 16" fill="none" xmlns="http://www.w3.org/2000/svg">
<path fill-rule="evenodd" clip-rule="evenodd" d="M0.557396 9.43264C0.615454 9.37444 0.684423 9.32826 0.760354 9.29675C0.836286 9.26524 0.917687 9.24902 0.999897 9.24902C1.08211 9.24902 1.16351 9.26524 1.23944 9.29675C1.31537 9.32826 1.38434 9.37444 1.4424 9.43264L5.9999 13.9914L10.5574 9.43264C10.6748 9.31528 10.8339 9.24935 10.9999 9.24935C11.1659 9.24935 11.325 9.31528 11.4424 9.43264C11.5598 9.55 11.6257 9.70917 11.6257 9.87514C11.6257 10.0411 11.5598 10.2003 11.4424 10.3176L6.4424 15.3176C6.38434 15.3758 6.31537 15.422 6.23944 15.4535C6.16351 15.485 6.0821 15.5013 5.9999 15.5013C5.91769 15.5013 5.83629 15.485 5.76035 15.4535C5.68442 15.422 5.61545 15.3758 5.5574 15.3176L0.557396 10.3176C0.499192 10.2596 0.453014 10.1906 0.421506 10.1147C0.389998 10.0388 0.373779 9.95735 0.373779 9.87514C0.373779 9.79293 0.389998 9.71153 0.421506 9.6356C0.453014 9.55967 0.499192 9.4907 0.557396 9.43264ZM0.557396 6.56764C0.615454 6.62584 0.684423 6.67202 0.760354 6.70353C0.836286 6.73504 0.917687 6.75126 0.999897 6.75126C1.08211 6.75126 1.16351 6.73504 1.23944 6.70353C1.31537 6.67202 1.38434 6.62584 1.4424 6.56764L5.9999 2.00889L10.5574 6.56764C10.6748 6.685 10.8339 6.75093 10.9999 6.75093C11.1659 6.75093 11.325 6.685 11.4424 6.56764C11.5598 6.45028 11.6257 6.29111 11.6257 6.12514C11.6257 5.95917 11.5598 5.8 11.4424 5.68264L6.4424 0.682641C6.38434 0.624437 6.31537 0.578258 6.23944 0.54675C6.16351 0.515242 6.0821 0.499023 5.9999 0.499023C5.91769 0.499023 5.83629 0.515242 5.76035 0.54675C5.68442 0.578258 5.61545 0.624437 5.5574 0.682641L0.557396 5.68264C0.499192 5.7407 0.453014 5.80967 0.421506 5.8856C0.389998 5.96153 0.373779 6.04293 0.373779 6.12514C0.373779 6.20735 0.389998 6.28875 0.421506 6.36468C0.453014 6.44062 0.499192 6.50958 0.557396 6.56764Z" fill="#282828"/>
</svg>
