<svg width="24" height="24" viewBox="0 0 24 24" fill="none" xmlns="http://www.w3.org/2000/svg">
<g clip-path="url(#clip0_343_201)">
<path fill-rule="evenodd" clip-rule="evenodd" d="M5.25 8.99988C5.05109 8.99988 4.86032 9.07889 4.71967 9.21955C4.57902 9.3602 4.5 9.55096 4.5 9.74988V21.7499C4.5 21.9488 4.57902 22.1396 4.71967 22.2802C4.86032 22.4209 5.05109 22.4999 5.25 22.4999H18.75C18.9489 22.4999 19.1397 22.4209 19.2803 22.2802C19.421 22.1396 19.5 21.9488 19.5 21.7499V9.74988C19.5 9.55096 19.421 9.3602 19.2803 9.21955C19.1397 9.07889 18.9489 8.99988 18.75 8.99988H15.75C15.5511 8.99988 15.3603 8.92086 15.2197 8.78021C15.079 8.63955 15 8.44879 15 8.24988C15 8.05096 15.079 7.8602 15.2197 7.71955C15.3603 7.57889 15.5511 7.49988 15.75 7.49988H18.75C19.3467 7.49988 19.919 7.73693 20.341 8.15889C20.7629 8.58084 21 9.15314 21 9.74988V21.7499C21 22.3466 20.7629 22.9189 20.341 23.3409C19.919 23.7628 19.3467 23.9999 18.75 23.9999H5.25C4.65326 23.9999 4.08097 23.7628 3.65901 23.3409C3.23705 22.9189 3 22.3466 3 21.7499V9.74988C3 9.15314 3.23705 8.58084 3.65901 8.15889C4.08097 7.73693 4.65326 7.49988 5.25 7.49988H8.25C8.44891 7.49988 8.63968 7.57889 8.78033 7.71955C8.92098 7.8602 9 8.05096 9 8.24988C9 8.44879 8.92098 8.63955 8.78033 8.78021C8.63968 8.92086 8.44891 8.99988 8.25 8.99988H5.25Z" fill="#467FE5"/>
<path fill-rule="evenodd" clip-rule="evenodd" d="M11.469 0.218876C11.5387 0.149031 11.6214 0.0936167 11.7125 0.055807C11.8037 0.0179974 11.9013 -0.00146484 12 -0.00146484C12.0987 -0.00146484 12.1963 0.0179974 12.2874 0.055807C12.3786 0.0936167 12.4613 0.149031 12.531 0.218876L17.031 4.71888C17.1718 4.85971 17.2509 5.05071 17.2509 5.24988C17.2509 5.44904 17.1718 5.64005 17.031 5.78088C16.8902 5.92171 16.6992 6.00082 16.5 6.00082C16.3008 6.00082 16.1098 5.92171 15.969 5.78088L12.75 2.56038V15.7499C12.75 15.9488 12.671 16.1396 12.5303 16.2802C12.3897 16.4209 12.1989 16.4999 12 16.4999C11.8011 16.4999 11.6103 16.4209 11.4697 16.2802C11.329 16.1396 11.25 15.9488 11.25 15.7499V2.56038L8.031 5.78088C7.96127 5.85061 7.87848 5.90592 7.78738 5.94366C7.69627 5.9814 7.59862 6.00082 7.5 6.00082C7.30084 6.00082 7.10983 5.92171 6.969 5.78088C6.89927 5.71114 6.84395 5.62836 6.80621 5.53725C6.76848 5.44614 6.74905 5.34849 6.74905 5.24988C6.74905 5.05071 6.82817 4.85971 6.969 4.71888L11.469 0.218876Z" fill="#467FE5"/>
</g>
<defs>
<clipPath id="clip0_343_201">
<rect width="24" height="24" fill="white"/>
</clipPath>
</defs>
</svg>
