<svg width="20" height="20" viewBox="0 0 20 20" fill="none" xmlns="http://www.w3.org/2000/svg">
<path fill-rule="evenodd" clip-rule="evenodd" d="M15.6906 4.3093C15.7359 4.35445 15.7718 4.40809 15.7963 4.46714C15.8208 4.52619 15.8334 4.58949 15.8334 4.65342C15.8334 4.71735 15.8208 4.78066 15.7963 4.83971C15.7718 4.89876 15.7359 4.9524 15.6906 4.99755L4.99777 15.6906C4.90651 15.7819 4.78272 15.8332 4.65366 15.8332C4.52459 15.8332 4.40081 15.7819 4.30954 15.6906C4.21828 15.5994 4.167 15.4756 4.167 15.3465C4.167 15.2174 4.21828 15.0937 4.30954 15.0024L15.0024 4.3093C15.0475 4.26404 15.1012 4.22812 15.1602 4.20362C15.2193 4.17912 15.2826 4.1665 15.3465 4.1665C15.4104 4.1665 15.4737 4.17912 15.5328 4.20362C15.5918 4.22812 15.6455 4.26404 15.6906 4.3093Z" fill="#909090"/>
<path fill-rule="evenodd" clip-rule="evenodd" d="M4.30954 4.3093C4.26428 4.35445 4.22837 4.40809 4.20386 4.46714C4.17936 4.52619 4.16675 4.58949 4.16675 4.65342C4.16675 4.71735 4.17936 4.78066 4.20386 4.83971C4.22837 4.89876 4.26428 4.9524 4.30954 4.99755L15.0024 15.6906C15.0937 15.7819 15.2174 15.8332 15.3465 15.8332C15.4756 15.8332 15.5994 15.7819 15.6906 15.6906C15.7819 15.5994 15.8332 15.4756 15.8332 15.3465C15.8332 15.2174 15.7819 15.0937 15.6906 15.0024L4.99777 4.3093C4.95262 4.26404 4.89899 4.22812 4.83994 4.20362C4.78089 4.17912 4.71759 4.1665 4.65366 4.1665C4.58972 4.1665 4.52642 4.17912 4.46737 4.20362C4.40832 4.22812 4.35469 4.26404 4.30954 4.3093Z" fill="#909090"/>
</svg>
